<svg width="84" height="84" viewBox="0 0 84 84" fill="none" xmlns="http://www.w3.org/2000/svg">
<g filter="url(#filter0_d_97_1376)">
<path d="M59.2 6H20.8C13.7308 6 8 11.7308 8 18.8V57.2C8 64.2692 13.7308 70 20.8 70H59.2C66.2692 70 72 64.2692 72 57.2V18.8C72 11.7308 66.2692 6 59.2 6Z" fill="url(#paint0_linear_97_1376)"/>
</g>
<path fill-rule="evenodd" clip-rule="evenodd" d="M40.0596 57.9931C34.1163 58.14 28.1258 55.9456 23.5901 51.4099C14.8033 42.6231 14.8033 28.3769 23.5901 19.5901C32.3769 10.8033 46.6231 10.8033 55.4099 19.5901C64.1967 28.3769 64.1967 42.6231 55.4099 51.4099L59.1919 55.1918C60.1373 56.1373 59.4791 57.7546 58.1421 57.771L40.0596 57.9931ZM52.3164 48.3163C45.2381 55.3946 33.762 55.3946 26.6837 48.3163C19.6055 41.2381 19.6055 29.7619 26.6837 22.6837C33.762 15.6055 45.2381 15.6055 52.3164 22.6837C59.3946 29.7619 59.3946 41.2381 52.3164 48.3163Z" fill="white" fill-opacity="0.2"/>
<mask id="mask0_97_1376" style="mask-type:luminance" maskUnits="userSpaceOnUse" x="58" y="13" width="7" height="7">
<path d="M64.4 13H58V19.4H64.4V13Z" fill="white"/>
</mask>
<g mask="url(#mask0_97_1376)">
<path d="M61.2 13.2666L60.4 15.4L58.2667 16.2L60.4 17L61.2 19.1333L62 17L64.1334 16.2L62 15.4L61.2 13.2666Z" fill="white" fill-opacity="0.5"/>
</g>
<mask id="mask1_97_1376" style="mask-type:luminance" maskUnits="userSpaceOnUse" x="18" y="53" width="7" height="7">
<path d="M24.4 53H18V59.4H24.4V53Z" fill="white"/>
</mask>
<g mask="url(#mask1_97_1376)">
<path d="M21.2 53.2666L20.4 55.4L18.2667 56.2L20.4 57L21.2 59.1333L22 57L24.1333 56.2L22 55.4L21.2 53.2666Z" fill="white" fill-opacity="0.5"/>
</g>
<path d="M38.8916 45.8334L43.8208 32.8334H46.0958L51.025 45.8334H48.75L47.6125 42.5292H42.3583L41.1666 45.8334H38.8916ZM43.0083 40.6334H46.9083L45.0125 35.2709H44.9041L43.0083 40.6334ZM30.3333 42.5834L28.8166 41.0667L34.2875 35.5959C33.6014 34.8375 33.0008 34.0521 32.4859 33.2396C31.971 32.4271 31.5243 31.5695 31.1458 30.6667H33.4208C33.7458 31.3167 34.0936 31.9035 34.4641 32.4271C34.8346 32.9507 35.2813 33.5014 35.8041 34.0792C36.5986 33.2125 37.2576 32.3231 37.7812 31.4109C38.3048 30.4988 38.7472 29.5285 39.1083 28.5H27.0833V26.3334H34.6666V24.1667H36.8333V26.3334H44.4166V28.5H41.275C40.8958 29.782 40.3812 31.0278 39.7312 32.2375C39.0812 33.4472 38.2778 34.5847 37.3208 35.65L39.9208 38.3042L39.1083 40.525L35.75 37.1667L30.3333 42.5834Z" fill="url(#paint1_linear_97_1376)"/>
<defs>
<filter id="filter0_d_97_1376" x="0" y="0" width="84" height="84" filterUnits="userSpaceOnUse" color-interpolation-filters="sRGB">
<feFlood flood-opacity="0" result="BackgroundImageFix"/>
<feColorMatrix in="SourceAlpha" type="matrix" values="0 0 0 0 0 0 0 0 0 0 0 0 0 0 0 0 0 0 127 0" result="hardAlpha"/>
<feOffset dx="2" dy="4"/>
<feGaussianBlur stdDeviation="5"/>
<feComposite in2="hardAlpha" operator="out"/>
<feColorMatrix type="matrix" values="0 0 0 0 0 0 0 0 0 0 0 0 0 0 0 0 0 0 0.1 0"/>
<feBlend mode="normal" in2="BackgroundImageFix" result="effect1_dropShadow_97_1376"/>
<feBlend mode="normal" in="SourceGraphic" in2="effect1_dropShadow_97_1376" result="shape"/>
</filter>
<linearGradient id="paint0_linear_97_1376" x1="8" y1="38" x2="70.4" y2="38" gradientUnits="userSpaceOnUse">
<stop stop-color="#5282FF"/>
<stop offset="1" stop-color="#3F46FF"/>
</linearGradient>
<linearGradient id="paint1_linear_97_1376" x1="22.1248" y1="30.3622" x2="52.848" y2="49.6836" gradientUnits="userSpaceOnUse">
<stop stop-color="white"/>
<stop offset="0.5625" stop-color="#AFBAFF"/>
</linearGradient>
</defs>
</svg>
