<svg width="303" height="113" viewBox="0 -3 303 113" fill="none" xmlns="http://www.w3.org/2000/svg">
<rect y="3" width="303" height="100" rx="4" fill="url(#paint0_radial_509_47131)"/>
<g filter="url(#filter0_d_509_47131)">
<path d="M146.125 62.9304C146.125 64.2429 145.875 65.485 145.375 66.6569C144.875 67.8132 144.188 68.821 143.312 69.6804C142.453 70.5397 141.438 71.2194 140.266 71.7194C139.109 72.2194 137.867 72.4694 136.539 72.4694C135.352 72.4694 134.211 72.2663 133.117 71.86C132.023 71.4382 131.031 70.8288 130.141 70.0319C129.266 70.8288 128.281 71.4382 127.188 71.86C126.109 72.2663 124.969 72.4694 123.766 72.4694C122.438 72.4694 121.195 72.2194 120.039 71.7194C118.883 71.2194 117.867 70.5397 116.992 69.6804C116.133 68.821 115.453 67.8132 114.953 66.6569C114.453 65.485 114.203 64.2429 114.203 62.9304V46.946H120.602V62.9304C120.602 63.3679 120.68 63.7819 120.836 64.1725C121.008 64.5475 121.234 64.8835 121.516 65.1804C121.812 65.4616 122.148 65.6882 122.523 65.86C122.914 66.0163 123.328 66.0944 123.766 66.0944C124.203 66.0944 124.617 66.0163 125.008 65.86C125.398 65.6882 125.742 65.4616 126.039 65.1804C126.336 64.8835 126.562 64.5475 126.719 64.1725C126.891 63.7819 126.977 63.3679 126.977 62.9304V46.946H133.352V62.9304C133.352 63.3679 133.438 63.7819 133.609 64.1725C133.781 64.5475 134.008 64.8835 134.289 65.1804C134.586 65.4616 134.922 65.6882 135.297 65.86C135.688 66.0163 136.102 66.0944 136.539 66.0944C136.977 66.0944 137.391 66.0163 137.781 65.86C138.172 65.6882 138.508 65.4616 138.789 65.1804C139.086 64.8835 139.32 64.5475 139.492 64.1725C139.664 63.7819 139.75 63.3679 139.75 62.9304V46.946H146.125V62.9304ZM173.343 59.2272C173.343 61.1022 173.007 62.8522 172.336 64.4772C171.664 66.0866 170.75 67.485 169.593 68.6725C168.437 69.8444 167.078 70.7741 165.515 71.4616C163.968 72.1335 162.304 72.4694 160.523 72.4694C158.757 72.4694 157.093 72.1335 155.531 71.4616C153.984 70.7741 152.625 69.8444 151.453 68.6725C150.297 67.485 149.382 66.0866 148.711 64.4772C148.039 62.8522 147.703 61.1022 147.703 59.2272C147.703 57.321 148.039 55.5554 148.711 53.9304C149.382 52.3054 150.297 50.9069 151.453 49.735C152.625 48.5475 153.984 47.6179 155.531 46.946C157.093 46.2741 158.757 45.9382 160.523 45.9382C162.304 45.9382 163.968 46.2585 165.515 46.8991C167.078 47.5241 168.437 48.4225 169.593 49.5944C170.75 50.7507 171.664 52.1491 172.336 53.7897C173.007 55.4147 173.343 57.2272 173.343 59.2272ZM166.898 59.2272C166.898 58.196 166.726 57.2663 166.382 56.4382C166.054 55.5944 165.601 54.8757 165.023 54.2819C164.445 53.6725 163.765 53.2116 162.984 52.8991C162.218 52.571 161.398 52.4069 160.523 52.4069C159.648 52.4069 158.82 52.571 158.039 52.8991C157.273 53.2116 156.601 53.6725 156.023 54.2819C155.461 54.8757 155.015 55.5944 154.687 56.4382C154.359 57.2663 154.195 58.196 154.195 59.2272C154.195 60.196 154.359 61.0944 154.687 61.9225C155.015 62.7507 155.461 63.4694 156.023 64.0788C156.601 64.6882 157.273 65.1725 158.039 65.5319C158.82 65.8757 159.648 66.0475 160.523 66.0475C161.398 66.0475 162.218 65.8835 162.984 65.5554C163.765 65.2272 164.445 64.7663 165.023 64.1725C165.601 63.5788 166.054 62.86 166.382 62.0163C166.726 61.1725 166.898 60.2429 166.898 59.2272ZM181.601 72.0007H175.202V46.8991H176.749L178.859 49.8757C179.89 48.9382 181.062 48.2194 182.374 47.7194C183.687 47.2038 185.046 46.946 186.452 46.946H192.101V53.321H186.452C185.781 53.321 185.148 53.446 184.554 53.696C183.96 53.946 183.445 54.2897 183.007 54.7272C182.57 55.1647 182.226 55.6804 181.976 56.2741C181.726 56.8679 181.601 57.5007 181.601 58.1725V72.0007ZM217.187 72.0007H215.64L213.155 68.5554C212.546 69.1022 211.897 69.6179 211.21 70.1022C210.538 70.571 209.827 70.985 209.077 71.3444C208.327 71.6882 207.554 71.9616 206.757 72.1647C205.976 72.3679 205.179 72.4694 204.366 72.4694C202.601 72.4694 200.937 72.1413 199.374 71.485C197.827 70.8132 196.468 69.8913 195.296 68.7194C194.14 67.5319 193.226 66.1335 192.554 64.5241C191.882 62.8991 191.546 61.1335 191.546 59.2272C191.546 57.3366 191.882 55.5788 192.554 53.9538C193.226 52.3288 194.14 50.9225 195.296 49.735C196.468 48.5475 197.827 47.6179 199.374 46.946C200.937 46.2741 202.601 45.9382 204.366 45.9382C204.929 45.9382 205.507 45.985 206.101 46.0788C206.71 46.1725 207.296 46.3288 207.858 46.5475C208.437 46.7507 208.976 47.0241 209.476 47.3679C209.976 47.7116 210.397 48.1335 210.741 48.6335V36.9147H217.187V72.0007ZM210.741 59.2272C210.741 58.3522 210.569 57.5085 210.226 56.696C209.897 55.8679 209.444 55.1413 208.866 54.5163C208.288 53.8757 207.608 53.3679 206.827 52.9929C206.062 52.6022 205.241 52.4069 204.366 52.4069C203.491 52.4069 202.663 52.5632 201.882 52.8757C201.116 53.1882 200.444 53.6413 199.866 54.235C199.304 54.8132 198.858 55.5241 198.53 56.3679C198.202 57.2116 198.038 58.1647 198.038 59.2272C198.038 60.1491 198.202 61.0241 198.53 61.8522C198.858 62.6804 199.304 63.4069 199.866 64.0319C200.444 64.6569 201.116 65.1491 201.882 65.5085C202.663 65.8679 203.491 66.0475 204.366 66.0475C205.241 66.0475 206.062 65.86 206.827 65.485C207.608 65.0944 208.288 64.5866 208.866 63.9616C209.444 63.321 209.897 62.5944 210.226 61.7819C210.569 60.9538 210.741 60.1022 210.741 59.2272ZM227.952 40.0788C227.952 40.6725 227.835 41.2272 227.6 41.7429C227.382 42.2585 227.077 42.7116 226.686 43.1022C226.296 43.4772 225.835 43.7819 225.303 44.0163C224.788 44.235 224.233 44.3444 223.639 44.3444C223.046 44.3444 222.483 44.235 221.952 44.0163C221.436 43.7819 220.983 43.4772 220.592 43.1022C220.217 42.7116 219.913 42.2585 219.678 41.7429C219.46 41.2272 219.35 40.6725 219.35 40.0788C219.35 39.5007 219.46 38.9538 219.678 38.4382C219.913 37.9069 220.217 37.4538 220.592 37.0788C220.983 36.6882 221.436 36.3835 221.952 36.1647C222.483 35.9304 223.046 35.8132 223.639 35.8132C224.233 35.8132 224.788 35.9304 225.303 36.1647C225.835 36.3835 226.296 36.6882 226.686 37.0788C227.077 37.4538 227.382 37.9069 227.6 38.4382C227.835 38.9538 227.952 39.5007 227.952 40.0788ZM226.85 72.0007H220.405V46.8991H226.85V72.0007ZM247.928 59.2272C247.928 58.3522 247.756 57.5085 247.412 56.696C247.084 55.8679 246.631 55.1413 246.053 54.5163C245.475 53.8757 244.795 53.3679 244.014 52.9929C243.248 52.6022 242.428 52.4069 241.553 52.4069C240.678 52.4069 239.85 52.5554 239.069 52.8522C238.303 53.1491 237.631 53.5866 237.053 54.1647C236.491 54.7429 236.045 55.4616 235.717 56.321C235.389 57.1647 235.225 58.1335 235.225 59.2272C235.225 60.2741 235.389 61.2194 235.717 62.0632C236.045 62.8913 236.491 63.6022 237.053 64.196C237.631 64.7897 238.303 65.2507 239.069 65.5788C239.85 65.8913 240.678 66.0475 241.553 66.0475C242.428 66.0475 243.248 65.86 244.014 65.485C244.795 65.0944 245.475 64.5866 246.053 63.9616C246.631 63.321 247.084 62.5944 247.412 61.7819C247.756 60.9538 247.928 60.1022 247.928 59.2272ZM254.373 68.8366C254.373 70.6022 254.037 72.2585 253.366 73.8054C252.694 75.3522 251.772 76.7038 250.6 77.86C249.444 79.0163 248.084 79.9304 246.522 80.6022C244.975 81.2741 243.319 81.61 241.553 81.61L238.342 81.5632V75.1647L241.506 75.2116C242.506 75.2116 243.358 75.0788 244.061 74.8132C244.764 74.5632 245.358 74.2116 245.842 73.7585C246.327 73.321 246.709 72.8132 246.991 72.235C247.287 71.6569 247.522 71.0475 247.694 70.4069C247.444 70.8132 247.084 71.1491 246.616 71.4147C246.147 71.6647 245.623 71.8679 245.045 72.0241C244.483 72.196 243.889 72.3132 243.264 72.3757C242.655 72.4382 242.084 72.4694 241.553 72.4694C239.787 72.4694 238.123 72.1647 236.561 71.5554C235.014 70.946 233.655 70.0788 232.483 68.9538C231.327 67.8132 230.412 66.4225 229.741 64.7819C229.069 63.1413 228.733 61.2897 228.733 59.2272C228.733 57.3366 229.069 55.5788 229.741 53.9538C230.412 52.3288 231.327 50.9225 232.483 49.735C233.655 48.5475 235.014 47.6179 236.561 46.946C238.123 46.2741 239.787 45.9382 241.553 45.9382C242.366 45.9382 243.17 46.0397 243.967 46.2429C244.764 46.446 245.537 46.7272 246.287 47.0866C247.037 47.446 247.748 47.8679 248.42 48.3522C249.108 48.8366 249.748 49.36 250.342 49.9225L252.827 46.946H254.373V68.8366ZM281.85 59.2272C281.85 61.1022 281.514 62.8522 280.842 64.4772C280.17 66.0866 279.256 67.485 278.1 68.6725C276.943 69.8444 275.584 70.7741 274.022 71.4616C272.475 72.1335 270.811 72.4694 269.029 72.4694C267.264 72.4694 265.6 72.1335 264.037 71.4616C262.49 70.7741 261.131 69.8444 259.959 68.6725C258.803 67.485 257.889 66.0866 257.217 64.4772C256.545 62.8522 256.209 61.1022 256.209 59.2272C256.209 57.321 256.545 55.5554 257.217 53.9304C257.889 52.3054 258.803 50.9069 259.959 49.735C261.131 48.5475 262.49 47.6179 264.037 46.946C265.6 46.2741 267.264 45.9382 269.029 45.9382C270.811 45.9382 272.475 46.2585 274.022 46.8991C275.584 47.5241 276.943 48.4225 278.1 49.5944C279.256 50.7507 280.17 52.1491 280.842 53.7897C281.514 55.4147 281.85 57.2272 281.85 59.2272ZM275.404 59.2272C275.404 58.196 275.232 57.2663 274.889 56.4382C274.561 55.5944 274.107 54.8757 273.529 54.2819C272.951 53.6725 272.272 53.2116 271.49 52.8991C270.725 52.571 269.904 52.4069 269.029 52.4069C268.154 52.4069 267.326 52.571 266.545 52.8991C265.779 53.2116 265.107 53.6725 264.529 54.2819C263.967 54.8757 263.522 55.5944 263.193 56.4382C262.865 57.2663 262.701 58.196 262.701 59.2272C262.701 60.196 262.865 61.0944 263.193 61.9225C263.522 62.7507 263.967 63.4694 264.529 64.0788C265.107 64.6882 265.779 65.1725 266.545 65.5319C267.326 65.8757 268.154 66.0475 269.029 66.0475C269.904 66.0475 270.725 65.8835 271.49 65.5554C272.272 65.2272 272.951 64.7663 273.529 64.1725C274.107 63.5788 274.561 62.86 274.889 62.0163C275.232 61.1725 275.404 60.2429 275.404 59.2272Z" fill="#5282FF"/>
</g>
<g filter="url(#filter1_d_509_47131)">
<path fill-rule="evenodd" clip-rule="evenodd" d="M60.8458 88.7119C51.3368 88.9568 41.7483 85.4637 34.4833 78.23C20.4092 64.2167 20.3846 41.4721 34.4283 27.4284C48.472 13.3847 71.2659 13.36 85.34 27.3733C99.414 41.3866 99.4386 64.1313 85.3949 78.175C78.6006 84.9693 69.7581 88.4823 60.8458 88.7119ZM80.4398 73.2413C69.1269 84.5543 50.7651 84.5742 39.4277 73.2857C28.0902 61.9972 28.0704 43.6751 39.3834 32.3621C50.6964 21.0491 69.0582 21.0293 80.3956 32.3178C91.733 43.6063 91.7528 61.9284 80.4398 73.2413Z" fill="url(#paint1_linear_509_47131)" shape-rendering="crispEdges"/>
</g>
<path d="M84 58.6213C84 69.8451 73.4787 78.9438 60.5 78.9438C47.5213 78.9438 37 69.8451 37 58.6213C37 54.7296 47.5213 53 60.5 53C73.4787 53 84 54.7297 84 58.6213Z" fill="url(#paint2_linear_509_47131)"/>
<g clip-path="url(#clip0_509_47131)">
<path d="M99 19.4996L97.5 23.4909L93.5 24.9877L97.5 26.4845L99 30.4758L100.5 26.4845L104.5 24.9877L100.5 23.4909L99 19.4996Z" fill="#5282FF"/>
</g>
<g clip-path="url(#clip1_509_47131)">
<path d="M26 82.5315L24.5 86.5229L20.5 88.0196L24.5 89.5164L26 93.5077L27.5 89.5164L31.5 88.0196L27.5 86.5229L26 82.5315Z" fill="#5282FF"/>
</g>
<defs>
<filter id="filter0_d_509_47131" x="106.203" y="29.8132" width="187.647" height="65.7969" filterUnits="userSpaceOnUse" color-interpolation-filters="sRGB">
<feFlood flood-opacity="0" result="BackgroundImageFix"/>
<feColorMatrix in="SourceAlpha" type="matrix" values="0 0 0 0 0 0 0 0 0 0 0 0 0 0 0 0 0 0 127 0" result="hardAlpha"/>
<feOffset dx="2" dy="4"/>
<feGaussianBlur stdDeviation="5"/>
<feComposite in2="hardAlpha" operator="out"/>
<feColorMatrix type="matrix" values="0 0 0 0 0 0 0 0 0 0 0 0 0 0 0 0 0 0 0.1 0"/>
<feBlend mode="normal" in2="BackgroundImageFix" result="effect1_dropShadow_509_47131"/>
<feBlend mode="normal" in="SourceGraphic" in2="effect1_dropShadow_509_47131" result="shape"/>
</filter>
<filter id="filter1_d_509_47131" x="5.91162" y="0.879395" width="112" height="111.844" filterUnits="userSpaceOnUse" color-interpolation-filters="sRGB">
<feFlood flood-opacity="0" result="BackgroundImageFix"/>
<feColorMatrix in="SourceAlpha" type="matrix" values="0 0 0 0 0 0 0 0 0 0 0 0 0 0 0 0 0 0 127 0" result="hardAlpha"/>
<feOffset dx="2" dy="4"/>
<feGaussianBlur stdDeviation="10"/>
<feComposite in2="hardAlpha" operator="out"/>
<feColorMatrix type="matrix" values="0 0 0 0 0 0 0 0 0 0 0 0 0 0 0 0 0 0 0.1 0"/>
<feBlend mode="normal" in2="BackgroundImageFix" result="effect1_dropShadow_509_47131"/>
<feBlend mode="normal" in="SourceGraphic" in2="effect1_dropShadow_509_47131" result="shape"/>
</filter>
<radialGradient id="paint0_radial_509_47131" cx="0" cy="0" r="1" gradientUnits="userSpaceOnUse" gradientTransform="translate(151.5 53) rotate(90) scale(50 151.5)">
<stop stop-color="#E2EAFF"/>
<stop offset="1" stop-color="white"/>
</radialGradient>
<linearGradient id="paint1_linear_509_47131" x1="69.658" y1="11.759" x2="-24.7433" y2="135.206" gradientUnits="userSpaceOnUse">
<stop stop-color="#5282FF"/>
<stop offset="1" stop-color="#5282FF" stop-opacity="0"/>
</linearGradient>
<linearGradient id="paint2_linear_509_47131" x1="37" y1="57.9892" x2="133.978" y2="81.0337" gradientUnits="userSpaceOnUse">
<stop stop-color="#5282FF"/>
<stop offset="1" stop-color="#5282FF" stop-opacity="0"/>
</linearGradient>
<clipPath id="clip0_509_47131">
<rect width="12" height="11.9741" fill="white" transform="translate(93 19.0007)"/>
</clipPath>
<clipPath id="clip1_509_47131">
<rect width="12" height="11.9741" fill="white" transform="translate(20 82.0326)"/>
</clipPath>
</defs>
</svg>