<svg width="134" height="32" viewBox="0 0 134 32" fill="none" xmlns="http://www.w3.org/2000/svg">
  <path
    d="M8.63999 16.32C9.34468 15.7915 10.3435 15.9322 10.875 16.6334L10.8824 16.6428C10.8919 16.6549 10.91 16.6774 10.9365 16.7089C10.9895 16.7721 11.0755 16.8707 11.1927 16.993C11.4283 17.2389 11.7825 17.5725 12.2411 17.906C13.1644 18.5775 14.4408 19.2 16 19.2C17.5591 19.2 18.8356 18.5775 19.7589 17.906C20.2175 17.5725 20.5716 17.2389 20.8073 16.993C20.9245 16.8707 21.0104 16.7721 21.0635 16.7089C21.0899 16.6774 21.108 16.6549 21.1176 16.6428L21.125 16.6334C21.6565 15.9322 22.6553 15.7915 23.36 16.32C24.0669 16.8502 24.2102 17.8531 23.68 18.56L22.4 17.6C23.68 18.56 23.68 18.56 23.68 18.56L23.6784 18.5622L23.6765 18.5646L23.6721 18.5704L23.6606 18.5855L23.6265 18.6291C23.5989 18.6639 23.5616 18.7102 23.5146 18.7661C23.4208 18.8779 23.288 19.0293 23.1176 19.2071C22.7783 19.5611 22.2825 20.0275 21.641 20.494C20.3643 21.4225 18.4408 22.4 16 22.4C13.5591 22.4 11.6356 21.4225 10.3589 20.494C9.71748 20.0275 9.22163 19.5611 8.88231 19.2071C8.71199 19.0293 8.5792 18.8779 8.48537 18.7661C8.4384 18.7102 8.40103 18.6639 8.37344 18.6291L8.33937 18.5855L8.32784 18.5704L8.32345 18.5646L8.3216 18.5622C8.3216 18.5622 8.31999 18.56 9.59999 17.6L8.31999 18.56C7.7898 17.8531 7.93306 16.8502 8.63999 16.32Z"
    fill="#020817"
  />
  <path
    fill-rule="evenodd"
    clip-rule="evenodd"
    d="M27.2 32C28.473 32 29.6939 31.4943 30.5941 30.5941C31.4942 29.6939 32 28.473 32 27.2V1.60005C32 0.952906 31.6101 0.369489 31.0122 0.12184C30.4144 -0.12581 29.7262 0.0110793 29.2686 0.468674L23.3372 6.40004H4.79999C3.52695 6.40004 2.30606 6.90575 1.40588 7.80592C0.505712 8.7061 0 9.92699 0 11.2V27.2C0 28.473 0.505712 29.6939 1.40588 30.5941C2.30606 31.4943 3.52695 32 4.79999 32H27.2ZM28.3313 28.3314C28.0313 28.6314 27.6243 28.8 27.2 28.8H4.79999C4.37565 28.8 3.96868 28.6314 3.66863 28.3314C3.36857 28.0313 3.2 27.6244 3.2 27.2V11.2C3.2 10.7757 3.36857 10.3687 3.66863 10.0687C3.96868 9.7686 4.37565 9.60003 4.79999 9.60003H24C24.4243 9.60003 24.8313 9.43146 25.1313 9.13141L28.8 5.46278V27.2C28.8 27.6244 28.6314 28.0313 28.3313 28.3314Z"
    fill="#020817"
  />
  <path
    d="M63.1893 12.1813L59.7333 24H56.512L54.3573 15.744L52.2026 24H48.96L45.4826 12.1813H48.512L50.6026 21.184L52.864 12.1813H56.0213L58.24 21.1627L60.3306 12.1813H63.1893Z"
    fill="#020817"
  />
  <path
    d="M70.0533 24.192C68.9155 24.192 67.8915 23.9431 66.9813 23.4453C66.0711 22.9333 65.3528 22.2151 64.8266 21.2907C64.3146 20.3662 64.0586 19.2996 64.0586 18.0907C64.0586 16.8818 64.3217 15.8151 64.848 14.8907C65.3884 13.9662 66.1208 13.2551 67.0453 12.7573C67.9697 12.2453 69.0008 11.9893 70.1386 11.9893C71.2764 11.9893 72.3075 12.2453 73.232 12.7573C74.1564 13.2551 74.8817 13.9662 75.408 14.8907C75.9484 15.8151 76.2186 16.8818 76.2186 18.0907C76.2186 19.2996 75.9413 20.3662 75.3866 21.2907C74.8462 22.2151 74.1066 22.9333 73.168 23.4453C72.2435 23.9431 71.2053 24.192 70.0533 24.192ZM70.0533 21.5893C70.5937 21.5893 71.0986 21.4613 71.568 21.2053C72.0515 20.9351 72.4355 20.5369 72.72 20.0107C73.0044 19.4844 73.1466 18.8444 73.1466 18.0907C73.1466 16.9671 72.848 16.1067 72.2506 15.5093C71.6675 14.8978 70.9493 14.592 70.096 14.592C69.2426 14.592 68.5244 14.8978 67.9413 15.5093C67.3724 16.1067 67.088 16.9671 67.088 18.0907C67.088 19.2142 67.3653 20.0818 67.92 20.6933C68.4888 21.2907 69.2 21.5893 70.0533 21.5893Z"
    fill="#020817"
  />
  <path
    d="M81.3961 14.016C81.7801 13.3902 82.2779 12.8996 82.8895 12.544C83.5152 12.1884 84.2263 12.0107 85.0228 12.0107V15.1467H84.2335C83.2948 15.1467 82.5837 15.3671 82.1001 15.808C81.6308 16.2489 81.3961 17.0169 81.3961 18.112V24H78.4095V12.1813H81.3961V14.016Z"
    fill="#020817"
  />
  <path
    d="M86.2665 18.048C86.2665 16.8533 86.5011 15.7938 86.9705 14.8693C87.454 13.9449 88.1082 13.2338 88.9331 12.736C89.758 12.2382 90.6753 11.9893 91.6851 11.9893C92.4531 11.9893 93.1856 12.16 93.8825 12.5013C94.5793 12.8284 95.134 13.2693 95.5465 13.824V8.21333H98.5758V24H95.5465V22.2507C95.1767 22.8338 94.6576 23.3031 93.9891 23.6587C93.3207 24.0142 92.5456 24.192 91.6638 24.192C90.6682 24.192 89.758 23.936 88.9331 23.424C88.1082 22.912 87.454 22.1938 86.9705 21.2693C86.5011 20.3307 86.2665 19.2569 86.2665 18.048ZM95.5678 18.0907C95.5678 17.3653 95.4256 16.7467 95.1411 16.2347C94.8567 15.7084 94.4727 15.3102 93.9891 15.04C93.5056 14.7556 92.9865 14.6133 92.4318 14.6133C91.8771 14.6133 91.3651 14.7484 90.8958 15.0187C90.4265 15.2889 90.0425 15.6871 89.7438 16.2133C89.4593 16.7253 89.3171 17.3369 89.3171 18.048C89.3171 18.7591 89.4593 19.3849 89.7438 19.9253C90.0425 20.4516 90.4265 20.8569 90.8958 21.1413C91.3794 21.4258 91.8913 21.568 92.4318 21.568C92.9865 21.568 93.5056 21.4329 93.9891 21.1627C94.4727 20.8782 94.8567 20.48 95.1411 19.968C95.4256 19.4418 95.5678 18.816 95.5678 18.0907Z"
    fill="#020817"
  />
  <path
    d="M103.007 10.7733C102.481 10.7733 102.04 10.6098 101.685 10.2827C101.343 9.94133 101.173 9.52178 101.173 9.024C101.173 8.52622 101.343 8.11378 101.685 7.78667C102.04 7.44533 102.481 7.27467 103.007 7.27467C103.534 7.27467 103.967 7.44533 104.309 7.78667C104.664 8.11378 104.842 8.52622 104.842 9.024C104.842 9.52178 104.664 9.94133 104.309 10.2827C103.967 10.6098 103.534 10.7733 103.007 10.7733ZM104.479 12.1813V24H101.493V12.1813H104.479Z"
    fill="#020817"
  />
  <path
    d="M112.06 11.9893C112.941 11.9893 113.717 12.1671 114.385 12.5227C115.053 12.864 115.58 13.312 115.964 13.8667V12.1813H118.972V24.0853C118.972 25.1804 118.751 26.1547 118.31 27.008C117.869 27.8756 117.208 28.5582 116.326 29.056C115.445 29.568 114.378 29.824 113.126 29.824C111.448 29.824 110.069 29.4329 108.988 28.6507C107.921 27.8684 107.317 26.8018 107.174 25.4507H110.14C110.296 25.9911 110.63 26.4178 111.142 26.7307C111.669 27.0578 112.301 27.2213 113.041 27.2213C113.909 27.2213 114.613 26.9582 115.153 26.432C115.693 25.92 115.964 25.1378 115.964 24.0853V22.2507C115.58 22.8053 115.046 23.2676 114.364 23.6373C113.695 24.0071 112.927 24.192 112.06 24.192C111.064 24.192 110.154 23.936 109.329 23.424C108.504 22.912 107.85 22.1938 107.366 21.2693C106.897 20.3307 106.662 19.2569 106.662 18.048C106.662 16.8533 106.897 15.7938 107.366 14.8693C107.85 13.9449 108.497 13.2338 109.308 12.736C110.133 12.2382 111.05 11.9893 112.06 11.9893ZM115.964 18.0907C115.964 17.3653 115.821 16.7467 115.537 16.2347C115.253 15.7084 114.869 15.3102 114.385 15.04C113.901 14.7556 113.382 14.6133 112.828 14.6133C112.273 14.6133 111.761 14.7484 111.292 15.0187C110.822 15.2889 110.438 15.6871 110.14 16.2133C109.855 16.7253 109.713 17.3369 109.713 18.048C109.713 18.7591 109.855 19.3849 110.14 19.9253C110.438 20.4516 110.822 20.8569 111.292 21.1413C111.775 21.4258 112.287 21.568 112.828 21.568C113.382 21.568 113.901 21.4329 114.385 21.1627C114.869 20.8782 115.253 20.48 115.537 19.968C115.821 19.4418 115.964 18.816 115.964 18.0907Z"
    fill="#020817"
  />
  <path
    d="M127.137 24.192C125.999 24.192 124.975 23.9431 124.065 23.4453C123.154 22.9333 122.436 22.2151 121.91 21.2907C121.398 20.3662 121.142 19.2996 121.142 18.0907C121.142 16.8818 121.405 15.8151 121.931 14.8907C122.472 13.9662 123.204 13.2551 124.129 12.7573C125.053 12.2453 126.084 11.9893 127.222 11.9893C128.36 11.9893 129.391 12.2453 130.315 12.7573C131.24 13.2551 131.965 13.9662 132.491 14.8907C133.032 15.8151 133.302 16.8818 133.302 18.0907C133.302 19.2996 133.025 20.3662 132.47 21.2907C131.93 22.2151 131.19 22.9333 130.251 23.4453C129.327 23.9431 128.289 24.192 127.137 24.192ZM127.137 21.5893C127.677 21.5893 128.182 21.4613 128.651 21.2053C129.135 20.9351 129.519 20.5369 129.803 20.0107C130.088 19.4844 130.23 18.8444 130.23 18.0907C130.23 16.9671 129.931 16.1067 129.334 15.5093C128.751 14.8978 128.033 14.592 127.179 14.592C126.326 14.592 125.608 14.8978 125.025 15.5093C124.456 16.1067 124.171 16.9671 124.171 18.0907C124.171 19.2142 124.449 20.0818 125.003 20.6933C125.572 21.2907 126.283 21.5893 127.137 21.5893Z"
    fill="#020817"
  />
</svg>
