<svg width="281" height="102" viewBox="0 0 281 102" fill="none" xmlns="http://www.w3.org/2000/svg">
<g filter="url(#filter0_d_74_35)">
<path d="M141.121 57.1497C141.121 58.4622 140.871 59.7043 140.371 60.8762C139.871 62.0325 139.183 63.0403 138.308 63.8997C137.449 64.759 136.433 65.4387 135.262 65.9387C134.105 66.4387 132.863 66.6887 131.535 66.6887C130.348 66.6887 129.207 66.4856 128.113 66.0793C127.019 65.6575 126.027 65.0481 125.137 64.2512C124.262 65.0481 123.277 65.6575 122.183 66.0793C121.105 66.4856 119.965 66.6887 118.762 66.6887C117.433 66.6887 116.191 66.4387 115.035 65.9387C113.879 65.4387 112.863 64.759 111.988 63.8997C111.129 63.0403 110.449 62.0325 109.949 60.8762C109.449 59.7043 109.199 58.4622 109.199 57.1497V41.1653H115.598V57.1497C115.598 57.5872 115.676 58.0012 115.832 58.3918C116.004 58.7668 116.23 59.1028 116.512 59.3997C116.808 59.6809 117.144 59.9075 117.519 60.0793C117.91 60.2356 118.324 60.3137 118.762 60.3137C119.199 60.3137 119.613 60.2356 120.004 60.0793C120.394 59.9075 120.738 59.6809 121.035 59.3997C121.332 59.1028 121.558 58.7668 121.715 58.3918C121.887 58.0012 121.973 57.5872 121.973 57.1497V41.1653H128.348V57.1497C128.348 57.5872 128.433 58.0012 128.605 58.3918C128.777 58.7668 129.004 59.1028 129.285 59.3997C129.582 59.6809 129.918 59.9075 130.293 60.0793C130.683 60.2356 131.098 60.3137 131.535 60.3137C131.973 60.3137 132.387 60.2356 132.777 60.0793C133.168 59.9075 133.504 59.6809 133.785 59.3997C134.082 59.1028 134.316 58.7668 134.488 58.3918C134.66 58.0012 134.746 57.5872 134.746 57.1497V41.1653H141.121V57.1497ZM168.339 53.4465C168.339 55.3215 168.003 57.0715 167.332 58.6965C166.66 60.3059 165.746 61.7043 164.589 62.8918C163.433 64.0637 162.074 64.9934 160.511 65.6809C158.964 66.3528 157.3 66.6887 155.519 66.6887C153.753 66.6887 152.089 66.3528 150.527 65.6809C148.98 64.9934 147.621 64.0637 146.449 62.8918C145.293 61.7043 144.378 60.3059 143.707 58.6965C143.035 57.0715 142.699 55.3215 142.699 53.4465C142.699 51.5403 143.035 49.7747 143.707 48.1497C144.378 46.5247 145.293 45.1262 146.449 43.9543C147.621 42.7668 148.98 41.8372 150.527 41.1653C152.089 40.4934 153.753 40.1575 155.519 40.1575C157.3 40.1575 158.964 40.4778 160.511 41.1184C162.074 41.7434 163.433 42.6418 164.589 43.8137C165.746 44.97 166.66 46.3684 167.332 48.009C168.003 49.634 168.339 51.4465 168.339 53.4465ZM161.894 53.4465C161.894 52.4153 161.722 51.4856 161.378 50.6575C161.05 49.8137 160.597 49.095 160.019 48.5012C159.441 47.8918 158.761 47.4309 157.98 47.1184C157.214 46.7903 156.394 46.6262 155.519 46.6262C154.644 46.6262 153.816 46.7903 153.035 47.1184C152.269 47.4309 151.597 47.8918 151.019 48.5012C150.457 49.095 150.011 49.8137 149.683 50.6575C149.355 51.4856 149.191 52.4153 149.191 53.4465C149.191 54.4153 149.355 55.3137 149.683 56.1418C150.011 56.97 150.457 57.6887 151.019 58.2981C151.597 58.9075 152.269 59.3918 153.035 59.7512C153.816 60.095 154.644 60.2668 155.519 60.2668C156.394 60.2668 157.214 60.1028 157.98 59.7747C158.761 59.4465 159.441 58.9856 160.019 58.3918C160.597 57.7981 161.05 57.0793 161.378 56.2356C161.722 55.3918 161.894 54.4622 161.894 53.4465ZM176.597 66.22H170.198V41.1184H171.745L173.855 44.095C174.886 43.1575 176.058 42.4387 177.37 41.9387C178.683 41.4231 180.042 41.1653 181.448 41.1653H187.097V47.5403H181.448C180.777 47.5403 180.144 47.6653 179.55 47.9153C178.956 48.1653 178.441 48.509 178.003 48.9465C177.566 49.384 177.222 49.8997 176.972 50.4934C176.722 51.0872 176.597 51.72 176.597 52.3918V66.22ZM212.183 66.22H210.636L208.151 62.7747C207.542 63.3215 206.893 63.8372 206.206 64.3215C205.534 64.7903 204.823 65.2043 204.073 65.5637C203.323 65.9075 202.55 66.1809 201.753 66.384C200.972 66.5872 200.175 66.6887 199.362 66.6887C197.597 66.6887 195.933 66.3606 194.37 65.7043C192.823 65.0325 191.464 64.1106 190.292 62.9387C189.136 61.7512 188.222 60.3528 187.55 58.7434C186.878 57.1184 186.542 55.3528 186.542 53.4465C186.542 51.5559 186.878 49.7981 187.55 48.1731C188.222 46.5481 189.136 45.1418 190.292 43.9543C191.464 42.7668 192.823 41.8372 194.37 41.1653C195.933 40.4934 197.597 40.1575 199.362 40.1575C199.925 40.1575 200.503 40.2043 201.097 40.2981C201.706 40.3918 202.292 40.5481 202.854 40.7668C203.433 40.97 203.972 41.2434 204.472 41.5872C204.972 41.9309 205.393 42.3528 205.737 42.8528V31.134H212.183V66.22ZM205.737 53.4465C205.737 52.5715 205.565 51.7278 205.222 50.9153C204.893 50.0872 204.44 49.3606 203.862 48.7356C203.284 48.095 202.604 47.5872 201.823 47.2122C201.058 46.8215 200.237 46.6262 199.362 46.6262C198.487 46.6262 197.659 46.7825 196.878 47.095C196.112 47.4075 195.44 47.8606 194.862 48.4543C194.3 49.0325 193.854 49.7434 193.526 50.5872C193.198 51.4309 193.034 52.384 193.034 53.4465C193.034 54.3684 193.198 55.2434 193.526 56.0715C193.854 56.8997 194.3 57.6262 194.862 58.2512C195.44 58.8762 196.112 59.3684 196.878 59.7278C197.659 60.0872 198.487 60.2668 199.362 60.2668C200.237 60.2668 201.058 60.0793 201.823 59.7043C202.604 59.3137 203.284 58.8059 203.862 58.1809C204.44 57.5403 204.893 56.8137 205.222 56.0012C205.565 55.1731 205.737 54.3215 205.737 53.4465ZM222.948 34.2981C222.948 34.8918 222.831 35.4465 222.596 35.9622C222.378 36.4778 222.073 36.9309 221.682 37.3215C221.292 37.6965 220.831 38.0012 220.299 38.2356C219.784 38.4543 219.229 38.5637 218.635 38.5637C218.042 38.5637 217.479 38.4543 216.948 38.2356C216.432 38.0012 215.979 37.6965 215.588 37.3215C215.213 36.9309 214.909 36.4778 214.674 35.9622C214.456 35.4465 214.346 34.8918 214.346 34.2981C214.346 33.72 214.456 33.1731 214.674 32.6575C214.909 32.1262 215.213 31.6731 215.588 31.2981C215.979 30.9075 216.432 30.6028 216.948 30.384C217.479 30.1497 218.042 30.0325 218.635 30.0325C219.229 30.0325 219.784 30.1497 220.299 30.384C220.831 30.6028 221.292 30.9075 221.682 31.2981C222.073 31.6731 222.378 32.1262 222.596 32.6575C222.831 33.1731 222.948 33.72 222.948 34.2981ZM221.846 66.22H215.401V41.1184H221.846V66.22ZM242.924 53.4465C242.924 52.5715 242.752 51.7278 242.408 50.9153C242.08 50.0872 241.627 49.3606 241.049 48.7356C240.471 48.095 239.791 47.5872 239.01 47.2122C238.244 46.8215 237.424 46.6262 236.549 46.6262C235.674 46.6262 234.846 46.7747 234.065 47.0715C233.299 47.3684 232.627 47.8059 232.049 48.384C231.487 48.9622 231.041 49.6809 230.713 50.5403C230.385 51.384 230.221 52.3528 230.221 53.4465C230.221 54.4934 230.385 55.4387 230.713 56.2825C231.041 57.1106 231.487 57.8215 232.049 58.4153C232.627 59.009 233.299 59.47 234.065 59.7981C234.846 60.1106 235.674 60.2668 236.549 60.2668C237.424 60.2668 238.244 60.0793 239.01 59.7043C239.791 59.3137 240.471 58.8059 241.049 58.1809C241.627 57.5403 242.08 56.8137 242.408 56.0012C242.752 55.1731 242.924 54.3215 242.924 53.4465ZM249.369 63.0559C249.369 64.8215 249.033 66.4778 248.362 68.0247C247.69 69.5715 246.768 70.9231 245.596 72.0793C244.44 73.2356 243.08 74.1497 241.518 74.8215C239.971 75.4934 238.315 75.8293 236.549 75.8293L233.338 75.7825V69.384L236.502 69.4309C237.502 69.4309 238.354 69.2981 239.057 69.0325C239.76 68.7825 240.354 68.4309 240.838 67.9778C241.323 67.5403 241.705 67.0325 241.987 66.4543C242.283 65.8762 242.518 65.2668 242.69 64.6262C242.44 65.0325 242.08 65.3684 241.612 65.634C241.143 65.884 240.619 66.0872 240.041 66.2434C239.479 66.4153 238.885 66.5325 238.26 66.595C237.651 66.6575 237.08 66.6887 236.549 66.6887C234.783 66.6887 233.119 66.384 231.557 65.7747C230.01 65.1653 228.651 64.2981 227.479 63.1731C226.323 62.0325 225.408 60.6418 224.737 59.0012C224.065 57.3606 223.729 55.509 223.729 53.4465C223.729 51.5559 224.065 49.7981 224.737 48.1731C225.408 46.5481 226.323 45.1418 227.479 43.9543C228.651 42.7668 230.01 41.8372 231.557 41.1653C233.119 40.4934 234.783 40.1575 236.549 40.1575C237.362 40.1575 238.166 40.259 238.963 40.4622C239.76 40.6653 240.533 40.9465 241.283 41.3059C242.033 41.6653 242.744 42.0872 243.416 42.5715C244.104 43.0559 244.744 43.5793 245.338 44.1418L247.823 41.1653H249.369V63.0559ZM276.846 53.4465C276.846 55.3215 276.51 57.0715 275.838 58.6965C275.166 60.3059 274.252 61.7043 273.096 62.8918C271.939 64.0637 270.58 64.9934 269.018 65.6809C267.471 66.3528 265.807 66.6887 264.025 66.6887C262.26 66.6887 260.596 66.3528 259.033 65.6809C257.486 64.9934 256.127 64.0637 254.955 62.8918C253.799 61.7043 252.885 60.3059 252.213 58.6965C251.541 57.0715 251.205 55.3215 251.205 53.4465C251.205 51.5403 251.541 49.7747 252.213 48.1497C252.885 46.5247 253.799 45.1262 254.955 43.9543C256.127 42.7668 257.486 41.8372 259.033 41.1653C260.596 40.4934 262.26 40.1575 264.025 40.1575C265.807 40.1575 267.471 40.4778 269.018 41.1184C270.58 41.7434 271.939 42.6418 273.096 43.8137C274.252 44.97 275.166 46.3684 275.838 48.009C276.51 49.634 276.846 51.4465 276.846 53.4465ZM270.4 53.4465C270.4 52.4153 270.228 51.4856 269.885 50.6575C269.557 49.8137 269.103 49.095 268.525 48.5012C267.947 47.8918 267.268 47.4309 266.486 47.1184C265.721 46.7903 264.9 46.6262 264.025 46.6262C263.15 46.6262 262.322 46.7903 261.541 47.1184C260.775 47.4309 260.103 47.8918 259.525 48.5012C258.963 49.095 258.518 49.8137 258.189 50.6575C257.861 51.4856 257.697 52.4153 257.697 53.4465C257.697 54.4153 257.861 55.3137 258.189 56.1418C258.518 56.97 258.963 57.6887 259.525 58.2981C260.103 58.9075 260.775 59.3918 261.541 59.7512C262.322 60.095 263.15 60.2668 264.025 60.2668C264.9 60.2668 265.721 60.1028 266.486 59.7747C267.268 59.4465 267.947 58.9856 268.525 58.3918C269.103 57.7981 269.557 57.0793 269.885 56.2356C270.228 55.3918 270.4 54.4622 270.4 53.4465Z" fill="#020817" fill-opacity="0.8" shape-rendering="crispEdges"/>
</g>
<g filter="url(#filter1_d_74_35)">
<path fill-rule="evenodd" clip-rule="evenodd" d="M51.807 86.9006C42.2977 87.1357 32.7129 83.6247 25.4558 76.3675C11.3969 62.3087 11.3969 39.5147 25.4558 25.4558C39.5147 11.397 62.3086 11.397 76.3675 25.4558C90.4263 39.5147 90.4263 62.3087 76.3675 76.3675C69.5658 83.1692 60.7195 86.6803 51.807 86.9006ZM71.4177 71.4178C60.0925 82.743 41.7307 82.743 30.4055 71.4178C19.0803 60.0926 19.0803 41.7308 30.4055 30.4056C41.7307 19.0804 60.0925 19.0804 71.4177 30.4056C82.7429 41.7308 82.7429 60.0926 71.4177 71.4178Z" fill="url(#paint0_linear_74_35)" shape-rendering="crispEdges"/>
</g>
<g filter="url(#filter2_d_74_35)">
<path fill-rule="evenodd" clip-rule="evenodd" d="M51.496 75.22C64.4747 75.22 74.996 66.1016 74.996 54.8534C74.996 50.9534 64.4747 49.22 51.496 49.22C38.5173 49.22 27.996 50.9533 27.996 54.8534C27.996 66.1016 38.5173 75.22 51.496 75.22ZM51.996 71.0327C61.2869 70.4742 68.7504 62.9676 68.9906 53.6053C69.7241 54.2133 70.1041 54.8857 70.0556 55.6212C69.4654 64.5761 61.4605 71.3308 51.996 71.0327Z" fill="#020817" fill-opacity="0.8" shape-rendering="crispEdges"/>
</g>
<g clip-path="url(#clip0_74_35)" filter="url(#filter3_d_74_35)">
<path d="M89.996 16.72L88.496 20.72L84.496 22.22L88.496 23.72L89.996 27.72L91.496 23.72L95.496 22.22L91.496 20.72L89.996 16.72Z" fill="#020817" fill-opacity="0.8"/>
</g>
<g clip-path="url(#clip1_74_35)" filter="url(#filter4_d_74_35)">
<path d="M16.996 75.72L15.496 79.72L11.496 81.22L15.496 82.72L16.996 86.72L18.496 82.72L22.496 81.22L18.496 79.72L16.996 75.72Z" fill="black" fill-opacity="0.8"/>
</g>
<defs>
<filter id="filter0_d_74_35" x="105.199" y="30.0325" width="175.647" height="53.7969" filterUnits="userSpaceOnUse" color-interpolation-filters="sRGB">
<feFlood flood-opacity="0" result="BackgroundImageFix"/>
<feColorMatrix in="SourceAlpha" type="matrix" values="0 0 0 0 0 0 0 0 0 0 0 0 0 0 0 0 0 0 127 0" result="hardAlpha"/>
<feOffset dy="4"/>
<feGaussianBlur stdDeviation="2"/>
<feComposite in2="hardAlpha" operator="out"/>
<feColorMatrix type="matrix" values="0 0 0 0 0 0 0 0 0 0 0 0 0 0 0 0 0 0 0.25 0"/>
<feBlend mode="normal" in2="BackgroundImageFix" result="effect1_dropShadow_74_35"/>
<feBlend mode="normal" in="SourceGraphic" in2="effect1_dropShadow_74_35" result="shape"/>
</filter>
<filter id="filter1_d_74_35" x="10.9116" y="14.9117" width="80" height="80" filterUnits="userSpaceOnUse" color-interpolation-filters="sRGB">
<feFlood flood-opacity="0" result="BackgroundImageFix"/>
<feColorMatrix in="SourceAlpha" type="matrix" values="0 0 0 0 0 0 0 0 0 0 0 0 0 0 0 0 0 0 127 0" result="hardAlpha"/>
<feOffset dy="4"/>
<feGaussianBlur stdDeviation="2"/>
<feComposite in2="hardAlpha" operator="out"/>
<feColorMatrix type="matrix" values="0 0 0 0 0 0 0 0 0 0 0 0 0 0 0 0 0 0 0.25 0"/>
<feBlend mode="normal" in2="BackgroundImageFix" result="effect1_dropShadow_74_35"/>
<feBlend mode="normal" in="SourceGraphic" in2="effect1_dropShadow_74_35" result="shape"/>
</filter>
<filter id="filter2_d_74_35" x="23.996" y="49.22" width="55" height="34" filterUnits="userSpaceOnUse" color-interpolation-filters="sRGB">
<feFlood flood-opacity="0" result="BackgroundImageFix"/>
<feColorMatrix in="SourceAlpha" type="matrix" values="0 0 0 0 0 0 0 0 0 0 0 0 0 0 0 0 0 0 127 0" result="hardAlpha"/>
<feOffset dy="4"/>
<feGaussianBlur stdDeviation="2"/>
<feComposite in2="hardAlpha" operator="out"/>
<feColorMatrix type="matrix" values="0 0 0 0 0 0 0 0 0 0 0 0 0 0 0 0 0 0 0.25 0"/>
<feBlend mode="normal" in2="BackgroundImageFix" result="effect1_dropShadow_74_35"/>
<feBlend mode="normal" in="SourceGraphic" in2="effect1_dropShadow_74_35" result="shape"/>
</filter>
<filter id="filter3_d_74_35" x="79.996" y="16.22" width="20" height="20" filterUnits="userSpaceOnUse" color-interpolation-filters="sRGB">
<feFlood flood-opacity="0" result="BackgroundImageFix"/>
<feColorMatrix in="SourceAlpha" type="matrix" values="0 0 0 0 0 0 0 0 0 0 0 0 0 0 0 0 0 0 127 0" result="hardAlpha"/>
<feOffset dy="4"/>
<feGaussianBlur stdDeviation="2"/>
<feComposite in2="hardAlpha" operator="out"/>
<feColorMatrix type="matrix" values="0 0 0 0 0 0 0 0 0 0 0 0 0 0 0 0 0 0 0.25 0"/>
<feBlend mode="normal" in2="BackgroundImageFix" result="effect1_dropShadow_74_35"/>
<feBlend mode="normal" in="SourceGraphic" in2="effect1_dropShadow_74_35" result="shape"/>
</filter>
<filter id="filter4_d_74_35" x="6.99597" y="75.22" width="20" height="20" filterUnits="userSpaceOnUse" color-interpolation-filters="sRGB">
<feFlood flood-opacity="0" result="BackgroundImageFix"/>
<feColorMatrix in="SourceAlpha" type="matrix" values="0 0 0 0 0 0 0 0 0 0 0 0 0 0 0 0 0 0 127 0" result="hardAlpha"/>
<feOffset dy="4"/>
<feGaussianBlur stdDeviation="2"/>
<feComposite in2="hardAlpha" operator="out"/>
<feColorMatrix type="matrix" values="0 0 0 0 0 0 0 0 0 0 0 0 0 0 0 0 0 0 0.25 0"/>
<feBlend mode="normal" in2="BackgroundImageFix" result="effect1_dropShadow_74_35"/>
<feBlend mode="normal" in="SourceGraphic" in2="effect1_dropShadow_74_35" result="shape"/>
</filter>
<linearGradient id="paint0_linear_74_35" x1="60.7023" y1="9.79071" x2="-90.762" y2="543.344" gradientUnits="userSpaceOnUse">
<stop stop-color="#020817"/>
<stop offset="1" stop-color="white" stop-opacity="0"/>
</linearGradient>
<clipPath id="clip0_74_35">
<rect width="12" height="12" fill="white" transform="translate(83.996 16.22)"/>
</clipPath>
<clipPath id="clip1_74_35">
<rect width="12" height="12" fill="white" transform="translate(10.996 75.22)"/>
</clipPath>
</defs>
</svg>
