<svg width="120" height="120" viewBox="0 0 120 120" fill="none" xmlns="http://www.w3.org/2000/svg">
<g filter="url(#filter0_d_91_2)">
<rect x="8" y="6" width="100" height="100" rx="20" fill="url(#paint0_linear_91_2)"/>
</g>
<path fill-rule="evenodd" clip-rule="evenodd" d="M57.5256 83.9773C50.087 84.1612 42.5894 81.4147 36.9126 75.7379C25.9151 64.7404 25.9151 46.9101 36.9126 35.9126C47.91 24.9152 65.7404 24.9152 76.7378 35.9126C87.7353 46.9101 87.7353 64.7404 76.7378 75.7379L81.2884 80.2884C82.54 81.54 81.6686 83.6808 79.8987 83.7025L57.5256 83.9773ZM72.8659 71.8659C64.0069 80.725 49.6435 80.725 40.7845 71.8659C31.9254 63.0069 31.9254 48.6435 40.7845 39.7845C49.6435 30.9254 64.0069 30.9254 72.8659 39.7845C81.725 48.6435 81.725 63.0069 72.8659 71.8659Z" fill="white" fill-opacity="0.2"/>
<g filter="url(#filter1_d_91_2)">
<path fill-rule="evenodd" clip-rule="evenodd" d="M57.5256 83.9773C50.087 84.1612 42.5894 81.4147 36.9126 75.7379C25.9151 64.7404 25.9151 46.9101 36.9126 35.9126C47.91 24.9152 65.7404 24.9152 76.7378 35.9126C87.7353 46.9101 87.7353 64.7404 76.7378 75.7379C71.4172 81.0584 64.4973 83.8049 57.5256 83.9773ZM72.8659 71.8659C64.0069 80.725 49.6435 80.725 40.7845 71.8659C31.9254 63.0069 31.9254 48.6435 40.7845 39.7845C49.6435 30.9254 64.0069 30.9254 72.8659 39.7845C81.725 48.6435 81.725 63.0069 72.8659 71.8659Z" fill="url(#paint1_linear_91_2)" shape-rendering="crispEdges"/>
</g>
<path fill-rule="evenodd" clip-rule="evenodd" d="M57.2821 74.8402C67.4346 74.8402 75.6648 67.7074 75.6648 58.9087C75.6648 55.8579 67.4346 54.502 57.2821 54.502C47.1296 54.502 38.8994 55.8578 38.8994 58.9087C38.8994 67.7074 47.1296 74.8402 57.2821 74.8402ZM57.6731 71.5649C64.941 71.128 70.7793 65.2561 70.9671 57.9324C71.541 58.408 71.8383 58.934 71.8003 59.5094C71.3386 66.5144 65.0767 71.7982 57.6731 71.5649Z" fill="white" fill-opacity="0.5"/>
<g clip-path="url(#clip0_91_2)">
<path d="M87.4999 28.375L86.3749 31.375L83.3749 32.5L86.3749 33.625L87.4999 36.625L88.6249 33.625L91.6249 32.5L88.6249 31.375L87.4999 28.375Z" fill="white" fill-opacity="0.5"/>
</g>
<g clip-path="url(#clip1_91_2)">
<path d="M30.9998 74.4584L29.7498 78.125L26.4165 79.5L29.7498 80.875L30.9998 84.5417L32.2498 80.875L35.5832 79.5L32.2498 78.125L30.9998 74.4584Z" fill="white" fill-opacity="0.5"/>
</g>
<defs>
<filter id="filter0_d_91_2" x="0" y="0" width="120" height="120" filterUnits="userSpaceOnUse" color-interpolation-filters="sRGB">
<feFlood flood-opacity="0" result="BackgroundImageFix"/>
<feColorMatrix in="SourceAlpha" type="matrix" values="0 0 0 0 0 0 0 0 0 0 0 0 0 0 0 0 0 0 127 0" result="hardAlpha"/>
<feOffset dx="2" dy="4"/>
<feGaussianBlur stdDeviation="5"/>
<feComposite in2="hardAlpha" operator="out"/>
<feColorMatrix type="matrix" values="0 0 0 0 0 0 0 0 0 0 0 0 0 0 0 0 0 0 0.1 0"/>
<feBlend mode="normal" in2="BackgroundImageFix" result="effect1_dropShadow_91_2"/>
<feBlend mode="normal" in="SourceGraphic" in2="effect1_dropShadow_91_2" result="shape"/>
</filter>
<filter id="filter1_d_91_2" x="22.6646" y="23.6646" width="76.3213" height="76.3214" filterUnits="userSpaceOnUse" color-interpolation-filters="sRGB">
<feFlood flood-opacity="0" result="BackgroundImageFix"/>
<feColorMatrix in="SourceAlpha" type="matrix" values="0 0 0 0 0 0 0 0 0 0 0 0 0 0 0 0 0 0 127 0" result="hardAlpha"/>
<feOffset dx="4" dy="6"/>
<feGaussianBlur stdDeviation="5"/>
<feComposite in2="hardAlpha" operator="out"/>
<feColorMatrix type="matrix" values="0 0 0 0 0 0 0 0 0 0 0 0 0 0 0 0 0 0 0.2 0"/>
<feBlend mode="normal" in2="BackgroundImageFix" result="effect1_dropShadow_91_2"/>
<feBlend mode="normal" in="SourceGraphic" in2="effect1_dropShadow_91_2" result="shape"/>
</filter>
<linearGradient id="paint0_linear_91_2" x1="8" y1="56" x2="105.5" y2="56" gradientUnits="userSpaceOnUse">
<stop stop-color="#5282FF"/>
<stop offset="1" stop-color="#3F46FF"/>
</linearGradient>
<linearGradient id="paint1_linear_91_2" x1="17" y1="43.7696" x2="93.1826" y2="87.1273" gradientUnits="userSpaceOnUse">
<stop stop-color="white"/>
<stop offset="1" stop-color="white" stop-opacity="0"/>
</linearGradient>
<clipPath id="clip0_91_2">
<rect width="9" height="9" fill="white" transform="translate(82.9999 28)"/>
</clipPath>
<clipPath id="clip1_91_2">
<rect width="10" height="11" fill="white" transform="translate(25.9999 74)"/>
</clipPath>
</defs>
</svg>
